<svg width="40" height="40" viewBox="0 0 40 40" fill="none" xmlns="http://www.w3.org/2000/svg">
<path d="M6.66699 16.6667L5.60633 17.7273L4.54567 16.6667L5.60633 15.606L6.66699 16.6667ZM34.8337 30C34.8337 30.8284 34.1621 31.5 33.3337 31.5C32.5052 31.5 31.8337 30.8284 31.8337 30L34.8337 30ZM15.0003 25L13.9397 26.0607L5.60633 17.7273L6.66699 16.6667L7.72765 15.606L16.061 23.9393L15.0003 25ZM6.66699 16.6667L5.60633 15.606L13.9397 7.27267L15.0003 8.33333L16.061 9.39399L7.72765 17.7273L6.66699 16.6667ZM6.66699 16.6667L6.66699 15.1667L27.3337 15.1667L27.3337 16.6667L27.3337 18.1667L6.66699 18.1667L6.66699 16.6667ZM33.3337 22.6667L34.8337 22.6667L34.8337 30L33.3337 30L31.8337 30L31.8337 22.6667L33.3337 22.6667ZM27.3337 16.6667L27.3337 15.1667C31.4758 15.1667 34.8337 18.5245 34.8337 22.6667L33.3337 22.6667L31.8337 22.6667C31.8337 20.1814 29.8189 18.1667 27.3337 18.1667L27.3337 16.6667Z" fill="#222222"/>
</svg>
