<svg width="71" height="71" viewBox="0 0 71 71" fill="none" xmlns="http://www.w3.org/2000/svg">
<path d="M25.1455 20.708V18.208H25.1455L25.1455 20.708ZM55.167 35.5L55.1672 33H55.167V35.5ZM59.167 55.167L61.667 55.1672V55.167H59.167ZM55.167 59.167V61.667H55.1672L55.167 59.167ZM25.1455 59.167L25.1455 61.667H25.1455V59.167ZM5.91699 39.9375H3.41699H5.91699ZM26.5957 59.1126L26.4097 56.6195L26.5957 59.1126ZM42.2073 31.0615L44.4242 29.9059L42.2073 31.0615ZM44.7846 35.0651L43.4882 37.2028L44.7846 35.0651ZM25.1455 20.708V23.208C31.5956 23.208 37.1971 26.8581 39.9904 32.217L42.2073 31.0615L44.4242 29.9059C40.8036 22.9599 33.5318 18.208 25.1455 18.208V20.708ZM48.6071 35.5V38H55.167V35.5V33H48.6071V35.5ZM55.167 35.5L55.1668 38C55.9954 38.0001 56.667 38.6719 56.667 39.5H59.167H61.667C61.667 35.9101 58.7565 33.0003 55.1672 33L55.167 35.5ZM59.167 39.5H56.667V55.167H59.167H61.667V39.5H59.167ZM59.167 55.167L56.667 55.1668C56.6669 55.9951 55.9951 56.6669 55.1668 56.667L55.167 59.167L55.1672 61.667C58.7566 61.6667 61.6667 58.7566 61.667 55.1672L59.167 55.167ZM55.167 59.167V56.667H26.6522V59.167V61.667H55.167V59.167ZM26.5957 59.1126L26.4097 56.6195C25.991 56.6507 25.5693 56.667 25.1455 56.667V59.167V61.667C25.6972 61.667 26.2431 61.6458 26.7817 61.6056L26.5957 59.1126ZM25.1455 59.167L25.1455 56.667C15.9065 56.6668 8.41699 49.1768 8.41699 39.9375H5.91699H3.41699C3.41699 51.938 13.1448 61.6668 25.1455 61.667L25.1455 59.167ZM5.91699 39.9375H8.41699C8.41699 30.6982 15.9065 23.2082 25.1455 23.208L25.1455 20.708L25.1455 18.208C13.1448 18.2082 3.41699 27.937 3.41699 39.9375H5.91699ZM26.625 59.1397H29.125C29.125 57.6678 27.8734 56.5103 26.4097 56.6195L26.5957 59.1126L26.7817 61.6056C25.3497 61.7124 24.125 60.58 24.125 59.1397H26.625ZM26.6522 59.167V56.667C28.0178 56.667 29.125 57.774 29.125 59.1397H26.625H24.125C24.125 60.5356 25.2566 61.667 26.6522 61.667V59.167ZM42.2073 31.0615L39.9904 32.217C40.5924 33.372 41.1054 34.3596 41.5632 35.1031C41.9929 35.8011 42.5867 36.656 43.4882 37.2028L44.7846 35.0651L46.0809 32.9275C46.2654 33.0394 46.1906 33.0821 45.821 32.4818C45.4794 31.927 45.0623 31.1302 44.4242 29.9059L42.2073 31.0615ZM48.6071 35.5V33C47.5257 33 46.8809 32.9976 46.4112 32.9556C45.9635 32.9155 45.9657 32.8576 46.0809 32.9275L44.7846 35.0651L43.4882 37.2028C44.3205 37.7075 45.1988 37.8671 45.9654 37.9357C46.7102 38.0024 47.6182 38 48.6071 38V35.5Z" fill="#4C94A4"/>
<path d="M57.7929 40.0426C59.2818 38.5538 60.4356 36.7643 61.1773 34.7937C61.9189 32.8231 62.2314 30.7169 62.0937 28.6159C61.9559 26.5149 61.3713 24.4675 60.3787 22.6106C59.3862 20.7537 58.0087 19.1301 56.3383 17.8483C54.6678 16.5665 52.743 15.6562 50.6925 15.1781C48.642 14.6999 46.513 14.6651 44.4479 15.0759C42.3829 15.4866 40.4293 16.3335 38.7178 17.56C37.0064 18.7864 35.5765 20.3641 34.5237 22.1875" stroke="#4C94A4" stroke-width="5"/>
</svg>
